<svg width="21" height="21" viewBox="0 0 21 21" fill="none" xmlns="http://www.w3.org/2000/svg">
<g id="Frame">
<path id="Vector" d="M5.85316 17.2771C6.82459 17.2771 8.42173 17.1878 10.5817 16.79C10.2082 17.8057 9.23459 18.5335 8.09102 18.5335C7.14031 18.5335 6.30745 18.03 5.83745 17.2771H5.85316ZM18.0503 11.7357C18.2267 12.6443 17.5896 13.4478 16.1553 14.1257C15.3696 14.4964 13.6224 15.2021 10.7367 15.7635C8.51102 16.1957 6.88031 16.295 5.85388 16.295C5.54888 16.295 5.29673 16.2864 5.09816 16.275C3.51531 16.1843 2.62245 15.6771 2.44602 14.7685C2.17816 13.3921 2.60173 12.8607 3.30388 11.9807L3.48888 11.7485C3.96245 11.1478 4.14745 10.5578 3.84459 9.0014C3.16673 5.51569 4.73673 3.13355 8.15102 2.4664C11.5667 1.80712 13.9153 3.42569 14.5932 6.91212C14.8953 8.46855 15.2882 8.94569 15.9524 9.32497V9.32569L16.211 9.47212C17.191 10.025 17.7825 10.3585 18.0503 11.7357Z" fill="white"/>
</g>
</svg>
