<svg width="31" height="31" viewBox="0 0 31 31" fill="none" xmlns="http://www.w3.org/2000/svg">
<g id="Frame">
<path id="Vector" d="M27.8162 13.5874C27.8162 13.5874 27.814 13.5852 27.8119 13.5831L16.2469 3.56632C15.9523 3.28561 15.5665 3.12703 15.1348 3.12061C14.7265 3.12703 14.3408 3.28561 14.0762 3.53953L2.4769 13.5874C2.02797 13.9817 1.8919 14.6106 2.14797 15.1613C2.37404 15.6499 2.8969 15.9327 3.43476 15.9327H5.50369V25.8435C5.50369 26.8785 6.34369 27.7185 7.37869 27.7185H11.9323C12.5237 27.7185 13.0037 27.2385 13.0037 26.647V20.0363C13.0037 19.8402 13.1623 19.6827 13.3573 19.6827H16.9358C17.1308 19.6827 17.2894 19.8402 17.2894 20.0363V26.647C17.2894 27.2385 17.7694 27.7185 18.3608 27.7185H22.9144C23.9505 27.7185 24.7894 26.8785 24.7894 25.8435V15.9327H26.8583C27.3962 15.9327 27.919 15.6499 28.1451 15.1613C28.4012 14.6106 28.2651 13.9817 27.8162 13.5874Z" fill="white"/>
</g>
</svg>
