<svg width="41" height="41" viewBox="0 0 41 41" fill="none" xmlns="http://www.w3.org/2000/svg">
<path d="M17.2343 39.8C7.7343 38.1 0.534302 29.9 0.534302 20C0.534302 9 9.5343 0 20.5343 0C31.5343 0 40.5343 9 40.5343 20C40.5343 29.9 33.3343 38.1 23.8343 39.8L22.7343 38.9H18.3343L17.2343 39.8Z" fill="url(#paint0_linear_109_2)"/>
<path d="M28.3343 26.1L29.2344 20.5H23.9344V16.6C23.9344 15 24.5343 13.8 26.9344 13.8H29.5344V8.69999C28.1344 8.49999 26.5344 8.29999 25.1344 8.29999C20.5344 8.29999 17.3343 11.1 17.3343 16.1V20.5H12.3344V26.1H17.3343V40.2C18.4343 40.4 19.5344 40.5 20.6344 40.5C21.7344 40.5 22.8343 40.4 23.9344 40.2V26.1H28.3343Z" fill="white"/>
<defs>
<linearGradient id="paint0_linear_109_2" x1="20.5353" y1="38.6089" x2="20.5353" y2="-0.00736777" gradientUnits="userSpaceOnUse">
<stop stop-color="#0062E0"/>
<stop offset="1" stop-color="#19AFFF"/>
</linearGradient>
</defs>
</svg>
