<svg width="21" height="21" viewBox="0 0 21 21" fill="none" xmlns="http://www.w3.org/2000/svg">
<g id="Frame" clip-path="url(#clip0_3_79)">
<path id="Vector" d="M3.42997 6.40907C4.9362 6.40907 6.15724 5.18803 6.15724 3.6818C6.15724 2.17557 4.9362 0.954529 3.42997 0.954529C1.92374 0.954529 0.702698 2.17557 0.702698 3.6818C0.702698 5.18803 1.92374 6.40907 3.42997 6.40907Z" fill="white"/>
<path id="Vector_2" d="M10.2481 6.40907C11.7544 6.40907 12.9754 5.18803 12.9754 3.6818C12.9754 2.17557 11.7544 0.954529 10.2481 0.954529C8.74192 0.954529 7.52087 2.17557 7.52087 3.6818C7.52087 5.18803 8.74192 6.40907 10.2481 6.40907Z" fill="white"/>
<path id="Vector_3" d="M17.0663 6.40907C18.5726 6.40907 19.7936 5.18803 19.7936 3.6818C19.7936 2.17557 18.5726 0.954529 17.0663 0.954529C15.5601 0.954529 14.3391 2.17557 14.3391 3.6818C14.3391 5.18803 15.5601 6.40907 17.0663 6.40907Z" fill="white"/>
<path id="Vector_4" d="M3.42997 13.2273C4.9362 13.2273 6.15724 12.0062 6.15724 10.5C6.15724 8.99375 4.9362 7.77271 3.42997 7.77271C1.92374 7.77271 0.702698 8.99375 0.702698 10.5C0.702698 12.0062 1.92374 13.2273 3.42997 13.2273Z" fill="white"/>
<path id="Vector_5" d="M10.2481 13.2273C11.7544 13.2273 12.9754 12.0062 12.9754 10.5C12.9754 8.99375 11.7544 7.77271 10.2481 7.77271C8.74192 7.77271 7.52087 8.99375 7.52087 10.5C7.52087 12.0062 8.74192 13.2273 10.2481 13.2273Z" fill="white"/>
<path id="Vector_6" d="M17.0663 13.2273C18.5726 13.2273 19.7936 12.0062 19.7936 10.5C19.7936 8.99375 18.5726 7.77271 17.0663 7.77271C15.5601 7.77271 14.3391 8.99375 14.3391 10.5C14.3391 12.0062 15.5601 13.2273 17.0663 13.2273Z" fill="white"/>
<path id="Vector_7" d="M3.42997 20.0454C4.9362 20.0454 6.15724 18.8244 6.15724 17.3182C6.15724 15.8119 4.9362 14.5909 3.42997 14.5909C1.92374 14.5909 0.702698 15.8119 0.702698 17.3182C0.702698 18.8244 1.92374 20.0454 3.42997 20.0454Z" fill="white"/>
<path id="Vector_8" d="M10.2481 20.0454C11.7544 20.0454 12.9754 18.8244 12.9754 17.3182C12.9754 15.8119 11.7544 14.5909 10.2481 14.5909C8.74192 14.5909 7.52087 15.8119 7.52087 17.3182C7.52087 18.8244 8.74192 20.0454 10.2481 20.0454Z" fill="white"/>
<path id="Vector_9" d="M17.0663 20.0454C18.5726 20.0454 19.7936 18.8244 19.7936 17.3182C19.7936 15.8119 18.5726 14.5909 17.0663 14.5909C15.5601 14.5909 14.3391 15.8119 14.3391 17.3182C14.3391 18.8244 15.5601 20.0454 17.0663 20.0454Z" fill="white"/>
</g>
<defs>
<clipPath id="clip0_3_79">
<rect width="20" height="20" fill="white" transform="translate(0.248169 0.5)"/>
</clipPath>
</defs>
</svg>
