<svg width="21" height="21" viewBox="0 0 21 21" fill="none" xmlns="http://www.w3.org/2000/svg">
<g id="Frame">
<path id="Vector" d="M10.2481 1.95856C15.0767 1.95856 18.8196 5.4957 18.8196 10.2728C18.8196 15.05 15.0767 18.5871 10.2481 18.5871C9.40998 18.5891 8.57536 18.4783 7.76672 18.2578C7.6148 18.2159 7.45303 18.2277 7.30886 18.2914L5.60529 19.0421C5.50248 19.0874 5.39013 19.1068 5.27809 19.0985C5.16606 19.0903 5.05776 19.0547 4.9627 18.9948C4.86764 18.9349 4.78873 18.8526 4.73289 18.7552C4.67705 18.6577 4.64599 18.548 4.64243 18.4357L4.596 16.9114C4.59285 16.8186 4.57083 16.7275 4.53129 16.6435C4.49175 16.5595 4.43551 16.4844 4.366 16.4228C3.50601 15.6481 2.82125 14.6987 2.35749 13.6381C1.89373 12.5776 1.66163 11.4303 1.67672 10.2728C1.67672 5.4957 5.41957 1.95856 10.2481 1.95856ZM5.101 12.7043C5.05007 12.785 5.02909 12.881 5.04173 12.9756C5.05438 13.0701 5.09984 13.1573 5.17019 13.2217C5.24053 13.2862 5.33128 13.3239 5.42661 13.3283C5.52193 13.3327 5.61576 13.3035 5.69172 13.2457L8.396 11.1928C8.48537 11.1256 8.59417 11.0893 8.706 11.0893C8.81783 11.0893 8.92663 11.1256 9.016 11.1928L11.016 12.6928C11.1581 12.7991 11.3206 12.8747 11.4933 12.9151C11.6661 12.9554 11.8453 12.9596 12.0197 12.9273C12.1942 12.8951 12.36 12.8271 12.5069 12.7276C12.6538 12.6281 12.7785 12.4993 12.8731 12.3493L15.391 8.35499C15.4419 8.2743 15.4629 8.17828 15.4503 8.0837C15.4376 7.98912 15.3922 7.90198 15.3218 7.83751C15.2515 7.77304 15.1607 7.73532 15.0654 7.73094C14.9701 7.72656 14.8762 7.7558 14.8003 7.81356L12.096 9.86641C12.0066 9.93364 11.8978 9.96999 11.786 9.96999C11.6742 9.96999 11.5654 9.93364 11.476 9.86641L9.476 8.36641C9.33392 8.2602 9.1714 8.18453 8.99866 8.14417C8.82592 8.10381 8.6467 8.09964 8.47227 8.13191C8.29783 8.16418 8.13197 8.2322 7.9851 8.33168C7.83823 8.43117 7.71353 8.55997 7.61886 8.70999L5.101 12.7043Z" fill="white"/>
</g>
</svg>
