<svg width="23" height="24" viewBox="0 0 23 24" fill="none" xmlns="http://www.w3.org/2000/svg">
<g id="search icon">
<path id="Vector" d="M9.60274 0.028542C4.30752 0.028542 0 4.50963 0 10.0182C0 15.5268 4.30752 20.0079 9.60274 20.0079C11.2215 20.0079 12.8128 19.6083 14.1572 18.8377C14.2649 18.9725 14.3843 19.0967 14.5139 19.2087L17.2575 22.0629C17.5108 22.3595 17.8198 22.5991 18.1653 22.7669C18.5109 22.9348 18.8858 23.0274 19.267 23.039C19.6482 23.0507 20.0277 22.9812 20.3821 22.8348C20.7366 22.6884 21.0585 22.4681 21.3282 22.1876C21.5978 21.9071 21.8096 21.5721 21.9503 21.2034C22.091 20.8347 22.1579 20.4399 22.1466 20.0434C22.1354 19.6468 22.0464 19.2568 21.885 18.8973C21.7237 18.5378 21.4934 18.2164 21.2083 17.9529L18.4647 15.0987C18.3311 14.9596 18.1839 14.8353 18.0257 14.7277C18.7665 13.3291 19.2329 11.7022 19.2329 9.98969C19.2329 4.48109 14.9254 0 9.63018 0L9.60274 0.028542ZM9.60274 2.88274C13.4164 2.88274 16.4618 6.0509 16.4618 10.0182C16.4618 11.902 15.8034 13.6431 14.651 14.9274C14.6236 14.956 14.5962 14.9845 14.5687 15.0131C14.4391 15.1251 14.3197 15.2493 14.2121 15.3841C13.0049 16.5258 11.3587 17.1823 9.57531 17.1823C5.76165 17.1823 2.7162 14.0141 2.7162 10.0468C2.7162 6.07944 5.76165 2.91128 9.57531 2.91128L9.60274 2.88274Z" fill="black"/>
</g>
</svg>
