<svg width="13" height="14" viewBox="0 0 13 14" fill="none" xmlns="http://www.w3.org/2000/svg">
<path id="Union" fill-rule="evenodd" clip-rule="evenodd" d="M2.24281 2.10313C3.22872 1.11723 4.56589 0.563354 5.96018 0.563354C7.35446 0.563354 8.69163 1.11723 9.67754 2.10313C10.6635 3.08903 11.2173 4.4262 11.2173 5.82048C11.2173 7.19609 10.6782 8.51611 9.71695 9.49805C9.76382 9.54272 9.81011 9.59134 9.8553 9.64373L12.2299 12.3965C12.6392 12.8711 12.8033 13.4753 12.5965 13.7462C12.3896 14.0171 11.8901 13.852 11.4808 13.3775L9.10624 10.6247C8.99646 10.4974 8.90431 10.3608 8.83223 10.2238C7.98442 10.7768 6.98781 11.0777 5.96018 11.0777C4.56589 11.0777 3.2287 10.5238 2.24279 9.53787C1.25688 8.55195 0.703003 7.21477 0.703003 5.82048C0.703013 4.4262 1.2569 3.08903 2.24281 2.10313ZM7.65741 1.80775C7.11932 1.58948 6.5426 1.47714 5.96018 1.47714C4.78393 1.47715 3.65586 1.93475 2.82413 2.74928C1.99239 3.56382 1.52513 4.66856 1.52513 5.82048C1.52513 6.97241 1.99239 8.07715 2.82413 8.89169C3.65586 9.70622 4.78393 10.1638 5.96018 10.1638C6.5426 10.1638 7.11932 10.0515 7.65741 9.83322C8.1955 9.61495 8.68442 9.29502 9.09625 8.8917C9.50809 8.48838 9.83477 8.00958 10.0577 7.48262C10.2805 6.95566 10.3953 6.39086 10.3953 5.82048C10.3953 5.25011 10.2805 4.68531 10.0577 4.15835C9.83477 3.63139 9.50809 3.15259 9.09625 2.74927C8.68442 2.34595 8.1955 2.02602 7.65741 1.80775Z" fill="white" fill-opacity="0.35"/>
</svg>
